<?xml version="1.0" encoding="utf-8"?>
<!-- Generator: Adobe Illustrator 27.5.0, SVG Export Plug-In . SVG Version: 6.00 Build 0)  -->
<svg version="1.1" xmlns="http://www.w3.org/2000/svg" xmlns:xlink="http://www.w3.org/1999/xlink" x="0px" y="0px"
	 viewBox="0 0 500 500" style="enable-background:new 0 0 500 500;" xml:space="preserve">
<g id="BACKGROUND">
	<rect style="fill:#729BF5;" width="500" height="500"/>
</g>
<g id="OBJECTS">
	<g>
		<defs>
			<rect id="SVGID_1_" width="500" height="500"/>
		</defs>
		<clipPath id="SVGID_00000044876189619801407520000009864181459919288767_">
			<use xlink:href="#SVGID_1_"  style="overflow:visible;"/>
		</clipPath>
		<g style="clip-path:url(#SVGID_00000044876189619801407520000009864181459919288767_);">
			<rect x="299.899" y="89.88" style="fill:#506EE0;" width="142.601" height="7.942"/>
			<rect x="299.899" y="106.551" style="fill:#506EE0;" width="142.601" height="7.942"/>
			<rect x="299.899" y="123.222" style="fill:#506EE0;" width="142.601" height="7.942"/>
			<rect x="299.899" y="139.893" style="fill:#506EE0;" width="142.601" height="7.942"/>
			<rect x="299.899" y="156.564" style="fill:#506EE0;" width="142.601" height="7.942"/>
			<rect x="299.899" y="173.236" style="fill:#506EE0;" width="142.601" height="7.942"/>
			<rect x="299.899" y="189.907" style="fill:#506EE0;" width="142.601" height="7.942"/>
			<rect x="299.899" y="206.578" style="fill:#506EE0;" width="142.601" height="7.942"/>
			<rect x="299.899" y="223.249" style="fill:#506EE0;" width="142.601" height="7.942"/>
			<rect x="299.899" y="239.92" style="fill:#506EE0;" width="142.601" height="7.942"/>
			<rect x="299.899" y="257.882" style="fill:#506EE0;" width="142.601" height="7.942"/>
			<rect x="299.899" y="275.845" style="fill:#506EE0;" width="142.601" height="7.942"/>
			<rect x="299.899" y="293.807" style="fill:#506EE0;" width="142.601" height="7.942"/>
		</g>
		<path style="clip-path:url(#SVGID_00000044876189619801407520000009864181459919288767_);fill:#313384;" d="M337.014,293.807
			c-3.656-35.415-22-50.075-90.507-50.075s-86.851,14.66-90.507,50.075C152.344,329.222,153.5,402,153.5,402h93.007h93.007
			C339.514,402,340.67,329.222,337.014,293.807z"/>
		
			<rect x="81" y="87.531" style="clip-path:url(#SVGID_00000044876189619801407520000009864181459919288767_);fill:#506EE0;" width="106.948" height="139.689"/>
		
			<rect x="199.366" y="87.531" style="clip-path:url(#SVGID_00000044876189619801407520000009864181459919288767_);fill:#506EE0;" width="61.635" height="80.504"/>
		<g style="clip-path:url(#SVGID_00000044876189619801407520000009864181459919288767_);">
			<polygon style="fill:#313384;" points="429.042,339.354 382.537,339.354 370.92,398.672 417.426,398.672 			"/>
			<polygon style="fill:#4A60DE;" points="382.537,339.354 429.042,339.354 440.659,398.672 394.153,398.672 			"/>
			<path style="fill:#D1E7FF;" d="M425.561,341.06c0.942-0.002,1.705-0.764,1.707-1.707c-0.002-0.942-0.764-1.705-1.707-1.707
				c-0.942,0.002-1.705,0.764-1.707,1.707h-1.215c0-1.614,1.308-2.922,2.922-2.922c1.614,0,2.922,1.308,2.922,2.922
				c0,1.614-1.308,2.922-2.922,2.922V341.06L425.561,341.06z"/>
			<path style="fill:#D1E7FF;" d="M419.067,341.06c0.943-0.002,1.705-0.764,1.707-1.707c-0.002-0.942-0.764-1.705-1.707-1.707
				c-0.942,0.002-1.705,0.764-1.707,1.707h-1.215c0-1.614,1.308-2.922,2.922-2.922c1.614,0,2.922,1.308,2.922,2.922
				c0,1.614-1.308,2.922-2.922,2.922V341.06L419.067,341.06z"/>
			<path style="fill:#D1E7FF;" d="M412.573,341.06c0.942-0.002,1.705-0.764,1.707-1.707c-0.002-0.942-0.764-1.705-1.707-1.707
				c-0.942,0.002-1.705,0.764-1.707,1.707h-1.215c0-1.614,1.308-2.922,2.922-2.922c1.614,0,2.922,1.308,2.922,2.922
				c0,1.614-1.308,2.922-2.922,2.922V341.06L412.573,341.06z"/>
			<path style="fill:#D1E7FF;" d="M406.079,341.06c0.942-0.002,1.705-0.764,1.707-1.707c-0.002-0.942-0.764-1.705-1.707-1.707
				c-0.943,0.002-1.705,0.764-1.707,1.707h-1.215c0-1.614,1.308-2.922,2.922-2.922c1.614,0,2.921,1.308,2.922,2.922
				c0,1.614-1.308,2.922-2.922,2.922V341.06L406.079,341.06z"/>
			<path style="fill:#D1E7FF;" d="M399.585,341.06c0.942-0.002,1.705-0.764,1.707-1.707c-0.002-0.942-0.764-1.705-1.707-1.707
				c-0.942,0.002-1.705,0.764-1.707,1.707h-1.215c0.001-1.614,1.308-2.922,2.922-2.922c1.614,0,2.922,1.308,2.922,2.922
				c0,1.614-1.308,2.922-2.922,2.922V341.06L399.585,341.06z"/>
			<path style="fill:#D1E7FF;" d="M393.09,341.06c0.942-0.002,1.705-0.764,1.707-1.707c-0.002-0.942-0.764-1.705-1.707-1.707
				c-0.942,0.002-1.705,0.764-1.707,1.707h-1.215c0.001-1.614,1.308-2.922,2.922-2.922c1.614,0,2.921,1.308,2.922,2.922
				c0,1.614-1.308,2.922-2.922,2.922V341.06L393.09,341.06z"/>
			<path style="fill:#D1E7FF;" d="M386.596,341.06c0.942-0.002,1.705-0.764,1.707-1.707c-0.002-0.942-0.764-1.705-1.707-1.707
				c-0.942,0.002-1.705,0.764-1.707,1.707h-1.215c0-1.614,1.308-2.922,2.922-2.922c1.614,0,2.921,1.308,2.922,2.922
				c0,1.614-1.308,2.922-2.922,2.922V341.06L386.596,341.06z"/>
		</g>
		<g style="clip-path:url(#SVGID_00000044876189619801407520000009864181459919288767_);">
			<path style="fill:#434FDA;" d="M321.944,282.543c-0.765,26.93-2.402,84.135-2.64,89.038c7.019-1.199,12.356-2.563,17.415-4.398
				c-3.883-20.032-10.401-39.478-12.435-59.82C322.959,298.753,322.913,290.572,321.944,282.543z"/>
			<path style="fill:#4A60DE;" d="M322.336,268.68c0,0-0.154,5.461-0.393,13.862c0.969,8.03,1.016,16.21,2.34,24.819
				c2.034,20.342,8.552,39.788,12.435,59.82c5.879-2.132,11.381-4.902,18.69-8.82C343.947,318.046,338.38,290.36,322.336,268.68z"/>
			<g>
				<path style="fill:#434FDA;" d="M180.778,372.292c-0.35-0.06-0.7-0.13-1.04-0.19l-0.36-0.07l-2.26-0.45
					c-11.1-2.29-17.99-5.25-27.76-10.58c-1.49-0.82-3.04-1.68-4.69-2.61c11.43-42.32,16.98-71.37,33.01-94.12
					C177.678,264.272,180.468,365.532,180.778,372.292z"/>
				<path style="fill:#232566;" d="M225.274,220.956c9.078-4.915,43.442-7.637,46.629,0c3.187,7.637,0.02,17.375-3.136,19.681
					c-3.156,2.306-20.178,12.737-20.178,12.737s-19.478-5.82-21.853-14.531C224.36,230.132,223.044,224.079,225.274,220.956z"/>
				<g>
					<path style="fill:#4A60DE;" d="M329.101,426.102c-0.297,0.861-1.015,1.578-1.711,2.245c-5.001,4.766-10.802,8.25-17.115,10.823
						c-19.093,7.789-42.86,7.225-63.121,8.23c-12.38,0.625-24.084-0.041-35.214-1.968c-9.08-1.547-17.781-3.956-26.175-7.184
						c-5.196-1.998-10.279-4.315-15.26-6.948c-1.619-0.861-2.531-2.767-2.962-4.468c-0.543-2.122,0.328-4.274,1.117-6.313
						c9.254-24.043,8.117-51.212,6.836-78.555c-0.666-14.235-1.353-28.727-2.05-43.464c-0.4-8.445-1.763-22.793,1.947-30.92
						c2.767-6.077,24.258-24.535,42.552-31.863c7.061-2.818,10.238-3.546,17.853-4.233c4.366-0.41,8.67-0.635,12.831-0.646
						c1.148-0.01,2.326,0.031,3.505,0.113c1.445,0.092,2.9,0.246,4.376,0.451c2.285,0.307,4.581,0.769,6.908,1.312
						c4.919,1.189,9.89,2.87,14.737,4.889c21.522,8.906,40.964,24.289,44.182,31.074c0.431,0.922,0.707,3.577,0.799,7.666
						c0.267,8.916-0.184,24.453-0.974,42.952c-0.553,12.657-1.302,26.698-2.08,40.861c-1.168,21.163,2.173,43.751,8.639,62.496
						C329.101,423.755,329.5,424.954,329.101,426.102z"/>
					<path style="fill:#434FDA;" d="M252.134,230.948l-4.991,15.752c0,0-32.806,30.223-35.778,49.378
						c-2.326,15.004-0.379,109.25,0.574,149.352c-9.08-1.547-17.781-3.956-26.175-7.184c-5.196-1.998-10.279-4.315-15.26-6.948
						c-1.619-0.861-2.531-2.767-2.962-4.468c-0.543-2.122,0.328-4.274,1.117-6.313c9.254-24.043,8.117-51.212,6.836-78.555
						c-0.666-14.235-1.353-28.727-2.05-43.464c-0.4-8.445-1.763-22.793,1.947-30.92c2.767-6.077,24.258-24.535,42.552-31.863
						c7.061-2.818,10.238-3.546,17.853-4.233c4.366-0.41,8.67-0.635,12.831-0.646C249.777,230.825,250.955,230.866,252.134,230.948z
						"/>
					<path style="fill:#FFBBCC;" d="M270.632,233.873c-6.682,8.342-14.237,14.681-22.045,19.503
						c-10.566-6.313-18.96-15.793-22.926-20.764c0.697-0.205,1.363-0.389,2.029-0.553l-0.461-34.24l41.128-0.564l0.41,29.823
						l0.082,6.221C269.443,233.483,270.038,233.668,270.632,233.873z"/>
					<path style="fill:#E2A0B8;" d="M268.634,217.407l-0.277-20.152l-41.128,0.564l0.461,34.24
						c-0.666,0.164-1.342,0.348-2.029,0.553c2.555,3.205,6.964,8.289,12.603,13.184
						C248.649,236.556,257.631,225.626,268.634,217.407z"/>
				</g>
				<g>
					<g>
						<path style="fill:#E2A0B8;" d="M214.371,173.736c-8.179-0.242-9.577,6.877-8.777,10.79c0.801,3.913,5.77,12.067,11.682,7.128
							C217.799,175.205,214.371,173.736,214.371,173.736z"/>
						<path style="fill:#FFBBCC;" d="M281.686,172.821c8.17-0.464,9.761,6.614,9.067,10.548c-0.694,3.933-5.439,12.219-11.484,7.443
							C278.299,174.382,281.686,172.821,281.686,172.821z"/>
					</g>
					<path style="fill:#FFBBCC;" d="M283.105,174.364c0.01,24.063-11.26,47.237-34.415,47.545c-2.908,0.045-5.625-0.288-8.17-0.953
						c-17.8-4.48-27.014-24.614-27.532-45.65c-0.475-19.618,3.394-34.042,15.443-40.877c4.91-2.783,11.156-4.314,19.002-4.413
						C274.645,129.644,283.094,151.498,283.105,174.364z"/>
					<path style="fill:#313384;" d="M284.316,163.145c-0.251,3.364-1.241,7.746-1.588,11.774c-0.186,2.117-0.202,4.127,0.162,5.854
						l-4.591-17.614c0,0-4.36-2.212-5.305-5.329c-1.968-6.34-3.112-9.891-3.157-9.886c-14.085,8.244-45.719,1.375-45.719,1.375
						s-1.108,7.237-1.997,10.773c-1.168,4.421-5.466,5.77-5.466,5.77l-3.295,15.843c0,0-5.573-27.562-5.519-37.387
						c0.028-3.818,1.346-7.349,5.391-8.516c0,0-0.024-0.02-0.053-0.085c-1.715-3.136,0.981-6.909,3.772-9.178
						c10.342-8.437,24.105-11.662,37.456-12.275c4.45-0.212,9.063-0.123,13.115,1.689c4.054,1.834,7.429,5.831,7.279,10.27
						c4.466-0.033,8.313,3.694,9.792,7.936C287.514,142.485,284.947,154.417,284.316,163.145z"/>
					<g>
						<path style="fill:#313384;" d="M235.65,184.195c0.06,1.759-0.956,3.171-2.27,3.153c-1.313-0.018-2.426-1.459-2.486-3.218
							c-0.06-1.759,0.957-3.171,2.27-3.153C234.477,180.995,235.59,182.436,235.65,184.195z"/>
					</g>
					<g>
						<path style="fill:#313384;" d="M263.344,183.875c-0.222,1.746-1.45,2.977-2.744,2.75c-1.294-0.227-2.162-1.827-1.94-3.573
							c0.222-1.746,1.45-2.977,2.744-2.75C262.697,180.529,263.566,182.129,263.344,183.875z"/>
					</g>
					<path style="fill:#313384;" d="M226.45,172.451c2.89-1.841,6.02-3.391,9.553-3.074c2.501,0.224,0.798-1.855-0.983-1.883
						c-3.105-0.05-6.213,1.115-8.521,3.192c-0.493,0.444-0.979,1.168-0.599,1.712c0.054,0.077,0.128,0.146,0.22,0.162
						C226.237,172.581,226.349,172.515,226.45,172.451z"/>
					<path style="fill:#313384;" d="M266.815,169.965c-3.181-1.274-6.543-2.219-9.957-1.254c-2.416,0.683-1.127-1.675,0.617-2.033
						c3.042-0.623,6.312-0.053,8.964,1.561c0.567,0.345,1.178,0.967,0.905,1.572c-0.038,0.085-0.099,0.167-0.186,0.2
						C267.049,170.054,266.926,170.009,266.815,169.965z"/>
				</g>
				<path style="fill:#E2A0B8;" d="M248.664,200.344c1.704,0.05,3.643-0.584,4.276-1.528c0.975-1.453-0.207-4.444-0.597-5.936
					c-0.618-2.365-1.35-4.701-2.191-6.996c-0.16-0.436-0.33-0.881-0.638-1.228c-0.309-0.347-0.79-0.579-1.24-0.465
					c-0.41,0.104-0.702,0.459-0.937,0.81c-0.986,1.471-0.898,3.638-1.106,5.355c-0.264,2.178-0.495,4.36-0.691,6.545
					C245.344,199.072,246.454,200.279,248.664,200.344z"/>
				<g>
					<path style="fill:#313384;" d="M246.507,243.732l-8.281,20.538c0,0-16.652-21.015-17.402-28.706
						c-1.332-13.651,4.448-14.604,4.448-14.604c-0.154,3.361,0.974,6.672,3.187,9.203c4.684,5.36,12.032,10.505,14.635,11.827
						C246.507,243.732,246.507,243.732,246.507,243.732z"/>
					<polygon style="fill:#F5D27A;" points="248.587,253.376 244.334,251.398 246.507,243.732 					"/>
					<polygon style="fill:#F5D27A;" points="252.841,251.398 248.587,253.376 250.678,243.732 					"/>
				</g>
				<polygon style="fill:#232566;" points="252.841,251.398 248.587,253.376 250.678,243.732 				"/>
				<path style="fill:#313384;" d="M275.613,234.785c-0.082,0.779-0.236,1.558-0.472,2.316
					c-2.285,7.379-16.193,27.169-16.193,27.169l-6.108-12.872l-2.162-7.666c0,0,0,0,3.402-1.742
					c2.603-1.322,9.951-6.467,14.635-11.827c2.214-2.531,3.341-5.842,3.187-9.203C271.903,220.96,276.361,228,275.613,234.785z"/>
				<polygon style="fill:#232566;" points="248.587,253.376 243.371,251.51 246.507,243.732 				"/>
				<path style="fill:#313384;" d="M255.129,208.717c0.195-0.093,0.406-0.191,0.618-0.149c0.346,0.069,0.519,0.499,0.432,0.841
					c-0.087,0.342-0.353,0.606-0.62,0.837c-3.567,3.091-8.402,3.284-12.257,0.77c-0.537-0.35-1.119-0.973-0.822-1.541
					c0.891-0.438,1.943-0.07,2.896,0.21C248.933,210.728,251.843,210.289,255.129,208.717z"/>
				<path style="fill:#E2A0B8;" d="M216.298,379.312v18.79c0,0-47.76,0-56.76,0s-15.75-6.05-14.87-16.55
					c0.57-6.83,3.04-15.39,4.69-20.55c9.77,5.33,16.66,8.29,27.76,10.58c0.73,0.16,1.49,0.31,2.26,0.45l0.36,0.07L216.298,379.312z"
					/>
				<path style="fill:#FFBBCC;" d="M353.238,391.252c-2.53,4.43-7.32,6.85-13.01,6.85c-9,0-56.76,0-56.76,0v-18.79l36.56-7.21
					l0.36-0.07c0.77-0.14,3.14-1.22,3.87-1.38c11.1-2.29,16.38-4.32,26.15-9.65c1.65,5.16,4.12,13.72,4.69,20.55
					C355.418,385.412,354.708,388.672,353.238,391.252z"/>
				<path style="fill:#E2A0B8;" d="M353.238,391.252c-2.53,4.43-7.32,6.85-13.01,6.85c-9,0-56.76,0-56.76,0v-6.71
					C299.848,391.572,332.248,391.832,353.238,391.252z"/>
				<polygon style="fill:#232566;" points="243.371,251.51 243.371,295.807 252.841,295.807 252.841,251.398 248.587,253.376 				
					"/>
				<circle style="fill:#4A60DE;" cx="248.32" cy="262.682" r="2.375"/>
				<circle style="fill:#4A60DE;" cx="248.32" cy="281.682" r="2.375"/>
				<path style="fill:#313384;" d="M212.248,198.742c-2.23,0.38-8.84-7.31-8.84-14.58s1.13-10.92,3.19-11.6
					c2.07-0.68,5.65-0.24,5.65,3.4c0,0,3.58,17.71,4,19.07C216.678,196.382,214.478,198.372,212.248,198.742z"/>
				<path style="fill:#313384;" d="M284.808,197.232c-0.2-0.01-0.39-0.04-0.59-0.08c-2.05-0.39-4.01-1.98-3.74-3.25
					c0.3-1.39,2.22-19.35,2.22-19.35c-0.34-3.62,3.19-4.39,5.3-3.91c0.34,0.08,0.67,0.24,0.97,0.49c1.6,1.24,2.72,4.7,3.28,10.76
					C292.928,189.132,287.068,197.402,284.808,197.232z"/>
				<path style="fill:none;stroke:#CCCCCC;stroke-width:2;stroke-miterlimit:10;" d="M209.753,176.807
					c0-11.284-1.913-14.176-1.913-22.031c0-7.855,6.363-30.85,40.838-29.472c34.475,1.378,38.548,20.997,39.11,28.438
					c0.563,7.441-1.409,22.22-1.409,22.22"/>
				<path style="fill:none;stroke:#CCCCCC;stroke-width:2;stroke-miterlimit:10;" d="M209.753,176.807
					c0-10.236-1.913-12.938-1.913-20.063s6.363-27.984,40.838-26.734c34.475,1.25,38.548,19.046,39.11,25.796
					s-1.409,20.155-1.409,20.155"/>
				<path style="fill:#4A60DE;" d="M284.808,197.232c-0.2-0.01-0.39-0.04-0.59-0.08c1.26-4.9,3.31-14.04,4.75-26.02
					c1.6,1.24,2.72,4.7,3.28,10.76C292.928,189.132,287.068,197.402,284.808,197.232z"/>
				<path style="fill:#4A60DE;" d="M212.248,198.742c-2.23,0.38-8.84-7.31-8.84-14.58s1.13-10.92,3.19-11.6
					C206.598,172.562,209.458,192.372,212.248,198.742z"/>
				<g>
					<path style="fill:#313384;" d="M286.9,189.247l-0.012,0.077c-0.134,0.847-1.455,8.503-5.512,16.406
						c-2.027,3.952-4.733,7.962-8.289,11.231c-3.558,3.269-7.951,5.804-13.428,6.859l0.378,1.964
						c6.064-1.164,10.929-4.051,14.767-7.689c5.76-5.462,9.253-12.589,11.333-18.346c2.077-5.759,2.734-10.162,2.742-10.207
						L286.9,189.247L286.9,189.247z"/>
					<path style="fill:#313384;" d="M261.708,227.109l-2.419,0.343c-1.475,0.209-2.839-0.816-3.049-2.291
						c-0.209-1.475,0.817-2.84,2.292-3.049l2.419-0.343c1.475-0.209,2.839,0.816,3.048,2.291
						C264.209,225.534,263.183,226.9,261.708,227.109z"/>
				</g>
			</g>
		</g>
		
			<rect x="53.795" y="410.432" style="clip-path:url(#SVGID_00000044876189619801407520000009864181459919288767_);fill:#434FDA;" width="392.008" height="89.568"/>
		<g style="clip-path:url(#SVGID_00000044876189619801407520000009864181459919288767_);">
			<path style="fill:#D1E7FF;" d="M283.856,329.022h-16.186c-1.814,0-3.285-1.471-3.285-3.285v-30.383
				c0-1.814,1.471-3.285,3.285-3.285h16.186c1.814,0,3.285,1.471,3.285,3.285v30.383
				C287.141,327.552,285.67,329.022,283.856,329.022z"/>
			<rect x="273.916" y="285.873" style="fill:#C2C2C2;" width="3.694" height="12.393"/>
		</g>
		<g style="clip-path:url(#SVGID_00000044876189619801407520000009864181459919288767_);">
			<path style="fill:#FFFFFF;" d="M321.934,392.606H178.066l-5.701-77.739c-0.334-4.555,3.272-8.435,7.839-8.435h139.592
				c4.568,0,8.173,3.88,7.839,8.435L321.934,392.606z"/>
			<path style="fill:#CFECFF;" d="M316.91,398.106H182.907c-2.674,0-4.841-2.167-4.841-4.841v-0.659h143.684v0.659
				C321.751,395.939,319.583,398.106,316.91,398.106z"/>
			
				<ellipse transform="matrix(0.9239 -0.3827 0.3827 0.9239 -114.7248 122.2761)" style="fill:#D1E7FF;" cx="250" cy="349.519" rx="9.134" ry="9.134"/>
		</g>
		<g style="clip-path:url(#SVGID_00000044876189619801407520000009864181459919288767_);">
			<g>
				<g>
					<path style="fill:#4A60DE;" d="M114.448,371.84c5.512-15.663,7.148-32.404,4.7-48.105
						c-10.204,13.534-15.387,30.731-14.125,46.864L114.448,371.84z"/>
					<path style="fill:#434FDA;" d="M107.254,376.452c2.693-23.786-3.2-47.652-16.273-65.906
						c-4.873,21.11-1.224,43.343,9.876,60.179L107.254,376.452z"/>
				</g>
				<polygon style="fill:#D1E7FF;" points="122.526,358.77 119.196,383.885 117.427,397.192 96.76,397.192 92.742,366.867 
					91.661,358.758 99.856,358.758 				"/>
				<polygon style="fill:#A7D1FF;" points="122.526,358.77 119.196,383.885 99.856,358.758 				"/>
			</g>
		</g>
		
			<rect x="44.414" y="398.102" style="clip-path:url(#SVGID_00000044876189619801407520000009864181459919288767_);fill:#313384;" width="410.771" height="13.785"/>
		<g style="clip-path:url(#SVGID_00000044876189619801407520000009864181459919288767_);">
			<path style="fill:#313384;" d="M483.351,483.955c-1.062-3.787-2.793-7.373-4.947-10.66c-1.203-1.836-2.88-3.469-3.934-5.377
				c-0.693-1.254-1.449-1.981-2.625-2.935c-3.056-2.477-6.991-4.536-11.035-4.435c-3.814,0.095-7.56,1.929-11.315,1.258
				c-5.86-1.046-8.865-7.362-12.73-11.89c-7.608-9.506-20.009-9.975-30.961-7.858c-3.645-0.387-6.448-3.24-9.485-5.293
				c-7.17-4.729-18.647-6.231-25.362-0.074c-7.007,11.421,14.701,16.264,16.9,25.886c0.848,3.602,0.472,6.35,1.078,10
				c2.532,11.22,16.272,21.204,27.084,19.83c1.023,6.178,3.155,12.267,6.971,17.291c4.468,5.882,10.958,9.683,18.07,11.451
				c3.701,0.92,7.52,1.326,11.33,1.366c0.989,0.011,1.977-0.005,2.965-0.041c0.916-0.033,1.865,0.21,2.76,0.121
				c2.662-0.263,5.549-2.513,7.743-3.898c5.566-3.515,11.291-7.234,14.832-12.783c3.733-5.85,4.598-13.268,3.133-20.052
				C483.686,485.223,483.528,484.586,483.351,483.955z"/>
			<path style="fill:none;stroke:#FFFFFF;stroke-miterlimit:10;" d="M383.988,442.835c38.296,12.471,98.817,71.555,98.817,71.555"/>
		</g>
		<g style="clip-path:url(#SVGID_00000044876189619801407520000009864181459919288767_);">
			<path style="fill:#5774FF;" d="M533.217,478.258c0.283-5.228-0.364-10.49-1.673-15.555c-0.731-2.83-2.146-5.606-2.657-8.462
				c-0.336-1.878-0.978-3.118-2.053-4.823c-2.791-4.43-6.872-8.711-12.012-10.315c-4.848-1.513-10.356-0.805-14.803-3.258
				c-6.94-3.828-8.024-13.075-10.957-20.438c-5.521-15.24-20.954-21.14-35.666-23.159c-4.43-2.048-6.741-6.844-9.69-10.732
				c-7.014-9.031-20.84-15.838-31.94-10.951c-13.723,11.398,11.57,26.796,10.223,39.867c-0.472,4.904-2.123,8.207-2.922,13.068
				c-1.612,15.228,11.436,33.696,25.654,36.592c-1.355,8.227-1.274,16.815,1.386,24.782c3.115,9.328,9.669,16.897,17.878,22.171
				c4.272,2.745,8.912,4.89,13.698,6.573c1.242,0.437,2.495,0.84,3.755,1.218c1.169,0.351,2.26,1.063,3.427,1.334
				c3.468,0.807,8.071-0.792,11.429-1.599c8.522-2.048,17.33-4.286,24.17-9.766c7.211-5.777,11.476-14.757,12.533-23.936
				C533.097,480,533.17,479.13,533.217,478.258z"/>
			<path style="fill:none;stroke:#FFFFFF;stroke-miterlimit:10;" d="M425.561,383.885C468.5,416,519.5,516.391,519.5,516.391"/>
		</g>
		<g style="clip-path:url(#SVGID_00000044876189619801407520000009864181459919288767_);">
			<path style="fill:#5774FF;" d="M-18.858,496.304c-1.072-4.492-1.342-9.159-1.007-13.761c0.187-2.571,0.976-5.203,0.968-7.763
				c-0.005-1.682,0.356-2.86,1.019-4.509c1.722-4.285,4.585-8.644,8.792-10.848c3.968-2.079,8.859-2.335,12.329-5.166
				c5.416-4.418,4.896-12.613,6.276-19.465c2.381-14.096,14.839-21.654,27.284-25.732c3.52-2.478,4.767-7.004,6.711-10.844
				c4.658-8.945,15.578-17.036,25.981-14.55c13.708,7.72-5.803,25.079-2.568,36.207c1.185,4.181,3.14,6.785,4.601,10.877
				c3.806,12.958-4.596,31.044-16.474,35.805c2.476,6.924,3.764,14.388,2.715,21.721c-1.228,8.586-5.718,16.189-12.007,22.063
				c-3.273,3.057-6.96,5.652-10.846,7.868c-1.008,0.575-2.032,1.123-3.066,1.651c-0.959,0.489-1.793,1.279-2.763,1.699
				c-2.882,1.249-7.128,0.589-10.169,0.419c-7.717-0.43-15.714-0.979-22.514-4.652c-7.17-3.873-12.29-10.99-14.658-18.787
				C-18.478,497.797-18.679,497.053-18.858,496.304z"/>
			<path style="fill:none;stroke:#FFFFFF;stroke-miterlimit:10;" d="M59.632,397.404c-32.179,34.652-60.56,129.818-60.56,129.818"/>
		</g>
	</g>
	<g>
		<g>
			<circle style="fill:#FFFFFF;" cx="356.066" cy="179.268" r="31.324"/>
			<path style="fill:#313384;" d="M344.782,196.827c4.612-0.48,12.208-3.637,19.095-10.524c6.887-6.887,10.044-14.483,10.524-19.095
				c0.309-2.968-1.565-5.343-2.939-6.659c-0.677-0.648-1.767-0.545-2.292,0.231l-6.547,9.682c-0.48,0.711-0.268,1.679,0.466,2.123
				l1.363,0.824c1.226,0.741,1.359,2.204,0.909,3.564c-0.749,2.263-8.551,10.064-10.814,10.814c-1.36,0.45-2.823,0.317-3.564-0.909
				l-0.824-1.363c-0.444-0.734-1.412-0.947-2.123-0.466l-9.682,6.547c-0.776,0.525-0.879,1.615-0.231,2.292
				C339.439,195.263,341.814,197.136,344.782,196.827z"/>
		</g>
		<g>
			<g>
				<circle style="fill:#FFFFFF;" cx="145.907" cy="179.268" r="33.297"/>
			</g>
			<path style="fill:#313384;" d="M160.54,156.119l1.506-2.355l-2.32-0.321l-9.538-1.318l6.453,10.09l2.282-3.569
				c6.831,4.322,11.371,11.94,11.37,20.62c-0.001,6.738-2.727,12.825-7.143,17.243c-4.418,4.415-10.505,7.142-17.243,7.143
				c-6.739-0.001-12.826-2.727-17.243-7.143c-4.416-4.418-7.142-10.505-7.143-17.243c0.001-6.739,2.727-12.826,7.143-17.244
				c4.418-4.415,10.505-7.141,17.243-7.142v-3c-15.125,0.001-27.385,12.26-27.386,27.386c0.001,15.125,12.261,27.385,27.386,27.386
				c15.125-0.001,27.385-12.261,27.386-27.386C173.291,169.525,168.203,160.974,160.54,156.119z"/>
			<text transform="matrix(1 0 0 1 132.4532 186.7442)" style="fill:#313384; font-family:'Barlow-SemiBold'; font-size:26px;">24</text>
		</g>
	</g>
	<g>
		<g>
			<g>
				<circle style="fill:#FFFFFF;" cx="179.563" cy="90.393" r="31.324"/>
				<path style="fill:#313384;" d="M200.797,90.393c0-9.423-9.507-17.063-21.234-17.063c-11.727,0-21.234,7.639-21.234,17.063
					c0,9.423,9.507,17.063,21.234,17.063c1.875,0,3.684-0.215,5.416-0.582l7.526,4.504l-1.402-6.675
					C196.933,101.661,200.797,96.394,200.797,90.393z"/>
			</g>
			<g>
				<path style="fill:#A7D1FF;" d="M171.177,90.393c0,1.58-1.281,2.862-2.862,2.862c-1.58,0-2.862-1.281-2.862-2.862
					c0-1.58,1.281-2.862,2.862-2.862C169.896,87.531,171.177,88.812,171.177,90.393z"/>
				<path style="fill:#A7D1FF;" d="M182.424,90.393c0,1.58-1.281,2.862-2.862,2.862c-1.58,0-2.862-1.281-2.862-2.862
					c0-1.58,1.281-2.862,2.862-2.862C181.143,87.531,182.424,88.812,182.424,90.393z"/>
				<path style="fill:#A7D1FF;" d="M193.672,90.393c0,1.58-1.281,2.862-2.862,2.862c-1.58,0-2.862-1.281-2.862-2.862
					c0-1.58,1.281-2.862,2.862-2.862C192.391,87.531,193.672,88.812,193.672,90.393z"/>
			</g>
		</g>
		<g>
			<g>
				<circle style="fill:#FFFFFF;" cx="320.437" cy="90.393" r="31.324"/>
			</g>
			<g>
				<polygon style="fill:#313384;" points="321.192,89.342 304.132,77.432 338.242,77.432 				"/>
				<polygon style="fill:#313384;" points="339.982,78.662 339.982,103.682 302.392,103.682 302.392,78.652 321.192,91.772 				"/>
			</g>
		</g>
	</g>
</g>
</svg>
